G75*
%MOIN*%
%OFA0B0*%
%FSLAX24Y24*%
%IPPOS*%
%LPD*%
%AMOC8*
5,1,8,0,0,1.08239X$1,22.5*
%
%ADD10R,0.0532X0.0532*%
%ADD11C,0.0532*%
%ADD12C,0.0660*%
D10*
X008680Y025805D03*
X012680Y025805D03*
D11*
X012680Y024805D03*
X012680Y023805D03*
X013680Y023805D03*
X013680Y024805D03*
X013680Y025805D03*
X013680Y022805D03*
X013680Y021805D03*
X013680Y020805D03*
X012680Y020805D03*
X012680Y021805D03*
X012680Y022805D03*
X012680Y019805D03*
X012680Y018805D03*
X013680Y018805D03*
X013680Y019805D03*
X013680Y017805D03*
X013680Y016805D03*
X013680Y015805D03*
X012680Y015805D03*
X012680Y016805D03*
X012680Y017805D03*
X012680Y014805D03*
X012680Y013805D03*
X012680Y012805D03*
X013680Y012805D03*
X013680Y013805D03*
X013680Y014805D03*
X013680Y011805D03*
X013680Y010805D03*
X012680Y010805D03*
X012680Y011805D03*
X012680Y009805D03*
X012680Y008805D03*
X012680Y007805D03*
X013680Y007805D03*
X013680Y008805D03*
X013680Y009805D03*
X013680Y006805D03*
X013680Y005805D03*
X013680Y004805D03*
X012680Y004805D03*
X012680Y005805D03*
X012680Y006805D03*
X012680Y003805D03*
X012680Y002805D03*
X012680Y001805D03*
X013680Y001805D03*
X013680Y002805D03*
X013680Y003805D03*
X009680Y003805D03*
X009680Y002805D03*
X009680Y001805D03*
X008680Y001805D03*
X008680Y002805D03*
X008680Y003805D03*
X008680Y004805D03*
X008680Y005805D03*
X008680Y006805D03*
X008680Y007805D03*
X008680Y008805D03*
X008680Y009805D03*
X008680Y010805D03*
X008680Y011805D03*
X008680Y012805D03*
X008680Y013805D03*
X008680Y014805D03*
X008680Y015805D03*
X008680Y016805D03*
X008680Y017805D03*
X008680Y018805D03*
X008680Y019805D03*
X008680Y020805D03*
X008680Y021805D03*
X008680Y022805D03*
X008680Y023805D03*
X008680Y024805D03*
X009680Y024805D03*
X009680Y025805D03*
X009680Y023805D03*
X009680Y022805D03*
X009680Y021805D03*
X009680Y020805D03*
X009680Y019805D03*
X009680Y018805D03*
X009680Y017805D03*
X009680Y016805D03*
X009680Y015805D03*
X009680Y014805D03*
X009680Y013805D03*
X009680Y012805D03*
X009680Y011805D03*
X009680Y010805D03*
X009680Y009805D03*
X009680Y008805D03*
X009680Y007805D03*
X009680Y006805D03*
X009680Y005805D03*
X009680Y004805D03*
D12*
X001930Y001805D02*
X001330Y001805D01*
X001430Y002805D02*
X002030Y002805D01*
X001930Y003805D02*
X001330Y003805D01*
X001430Y004805D02*
X002030Y004805D01*
X001930Y005805D02*
X001330Y005805D01*
X001430Y006805D02*
X002030Y006805D01*
X001930Y007805D02*
X001330Y007805D01*
X001430Y008805D02*
X002030Y008805D01*
X001930Y009805D02*
X001330Y009805D01*
X001430Y010805D02*
X002030Y010805D01*
X001930Y011805D02*
X001330Y011805D01*
X001430Y012805D02*
X002030Y012805D01*
X001930Y013805D02*
X001330Y013805D01*
X001430Y014805D02*
X002030Y014805D01*
X001930Y015805D02*
X001330Y015805D01*
X001430Y016805D02*
X002030Y016805D01*
X001930Y017805D02*
X001330Y017805D01*
X001430Y018805D02*
X002030Y018805D01*
X001930Y019805D02*
X001330Y019805D01*
X001430Y020805D02*
X002030Y020805D01*
X001930Y021805D02*
X001330Y021805D01*
X001430Y022805D02*
X002030Y022805D01*
X001930Y023805D02*
X001330Y023805D01*
X001430Y024805D02*
X002030Y024805D01*
X001930Y025805D02*
X001330Y025805D01*
X004830Y025805D02*
X005430Y025805D01*
X005530Y024805D02*
X004930Y024805D01*
X004830Y023805D02*
X005430Y023805D01*
X005530Y022805D02*
X004930Y022805D01*
X004830Y021805D02*
X005430Y021805D01*
X005530Y020805D02*
X004930Y020805D01*
X004830Y019805D02*
X005430Y019805D01*
X005530Y018805D02*
X004930Y018805D01*
X004830Y017805D02*
X005430Y017805D01*
X005530Y016805D02*
X004930Y016805D01*
X004830Y015805D02*
X005430Y015805D01*
X005530Y014805D02*
X004930Y014805D01*
X004830Y013805D02*
X005430Y013805D01*
X005530Y012805D02*
X004930Y012805D01*
X004830Y011805D02*
X005430Y011805D01*
X005530Y010805D02*
X004930Y010805D01*
X004830Y009805D02*
X005430Y009805D01*
X005530Y008805D02*
X004930Y008805D01*
X004830Y007805D02*
X005430Y007805D01*
X005530Y006805D02*
X004930Y006805D01*
X004830Y005805D02*
X005430Y005805D01*
X005530Y004805D02*
X004930Y004805D01*
X004830Y003805D02*
X005430Y003805D01*
X005530Y002805D02*
X004930Y002805D01*
X004830Y001805D02*
X005430Y001805D01*
X017430Y001805D02*
X018030Y001805D01*
X018130Y002805D02*
X017530Y002805D01*
X017430Y003805D02*
X018030Y003805D01*
X018130Y004805D02*
X017530Y004805D01*
X017430Y005805D02*
X018030Y005805D01*
X018130Y006805D02*
X017530Y006805D01*
X017430Y007805D02*
X018030Y007805D01*
X018130Y008805D02*
X017530Y008805D01*
X017430Y009805D02*
X018030Y009805D01*
X018130Y010805D02*
X017530Y010805D01*
X017430Y011805D02*
X018030Y011805D01*
X018130Y012805D02*
X017530Y012805D01*
X017430Y013805D02*
X018030Y013805D01*
X018130Y014805D02*
X017530Y014805D01*
X017430Y015805D02*
X018030Y015805D01*
X018130Y016805D02*
X017530Y016805D01*
X017430Y017805D02*
X018030Y017805D01*
X018130Y018805D02*
X017530Y018805D01*
X017430Y019805D02*
X018030Y019805D01*
X018130Y020805D02*
X017530Y020805D01*
X017430Y021805D02*
X018030Y021805D01*
X018130Y022805D02*
X017530Y022805D01*
X017430Y023805D02*
X018030Y023805D01*
X018130Y024805D02*
X017530Y024805D01*
X017430Y025805D02*
X018030Y025805D01*
X021230Y025805D02*
X021830Y025805D01*
X021930Y024805D02*
X021330Y024805D01*
X021230Y023805D02*
X021830Y023805D01*
X021930Y022805D02*
X021330Y022805D01*
X021230Y021805D02*
X021830Y021805D01*
X021930Y020805D02*
X021330Y020805D01*
X021230Y019805D02*
X021830Y019805D01*
X021930Y018805D02*
X021330Y018805D01*
X021230Y017805D02*
X021830Y017805D01*
X021930Y016805D02*
X021330Y016805D01*
X021230Y015805D02*
X021830Y015805D01*
X021930Y014805D02*
X021330Y014805D01*
X021230Y013805D02*
X021830Y013805D01*
X021930Y012805D02*
X021330Y012805D01*
X021230Y011805D02*
X021830Y011805D01*
X021930Y010805D02*
X021330Y010805D01*
X021230Y009805D02*
X021830Y009805D01*
X021930Y008805D02*
X021330Y008805D01*
X021230Y007805D02*
X021830Y007805D01*
X021930Y006805D02*
X021330Y006805D01*
X021230Y005805D02*
X021830Y005805D01*
X021930Y004805D02*
X021330Y004805D01*
X021230Y003805D02*
X021830Y003805D01*
X021930Y002805D02*
X021330Y002805D01*
X021230Y001805D02*
X021830Y001805D01*
M02*
