%
M48
M72
T01C0.0315
T02C0.0400
%
T01
X8680Y1805
X8680Y2805
X8680Y3805
X8680Y4805
X8680Y5805
X8680Y6805
X8680Y7805
X8680Y8805
X8680Y9805
X8680Y10805
X8680Y11805
X8680Y12805
X8680Y13805
X8680Y14805
X8680Y15805
X8680Y16805
X8680Y17805
X8680Y18805
X8680Y19805
X8680Y20805
X8680Y21805
X8680Y22805
X8680Y23805
X8680Y24805
X8680Y25805
X9680Y25805
X9680Y24805
X9680Y23805
X9680Y22805
X9680Y21805
X9680Y20805
X9680Y19805
X9680Y18805
X9680Y17805
X9680Y16805
X9680Y15805
X9680Y14805
X9680Y13805
X9680Y12805
X9680Y11805
X9680Y10805
X9680Y9805
X9680Y8805
X9680Y7805
X9680Y6805
X9680Y5805
X9680Y4805
X9680Y3805
X9680Y2805
X9680Y1805
X12680Y1805
X12680Y2805
X12680Y3805
X12680Y4805
X12680Y5805
X12680Y6805
X12680Y7805
X12680Y8805
X12680Y9805
X12680Y10805
X12680Y11805
X12680Y12805
X12680Y13805
X12680Y14805
X12680Y15805
X12680Y16805
X12680Y17805
X12680Y18805
X12680Y19805
X12680Y20805
X12680Y21805
X12680Y22805
X12680Y23805
X12680Y24805
X12680Y25805
X13680Y25805
X13680Y24805
X13680Y23805
X13680Y22805
X13680Y21805
X13680Y20805
X13680Y19805
X13680Y18805
X13680Y17805
X13680Y16805
X13680Y15805
X13680Y14805
X13680Y13805
X13680Y12805
X13680Y11805
X13680Y10805
X13680Y9805
X13680Y8805
X13680Y7805
X13680Y6805
X13680Y5805
X13680Y4805
X13680Y3805
X13680Y2805
X13680Y1805
T02
X1630Y1805
X1730Y2805
X1630Y3805
X1730Y4805
X1630Y5805
X1730Y6805
X1630Y7805
X1730Y8805
X1630Y9805
X1730Y10805
X1630Y11805
X1730Y12805
X1630Y13805
X1730Y14805
X1630Y15805
X1730Y16805
X1630Y17805
X1730Y18805
X1630Y19805
X1730Y20805
X1630Y21805
X1730Y22805
X1630Y23805
X1730Y24805
X1630Y25805
X5130Y25805
X5230Y24805
X5130Y23805
X5230Y22805
X5130Y21805
X5230Y20805
X5130Y19805
X5230Y18805
X5130Y17805
X5230Y16805
X5130Y15805
X5230Y14805
X5130Y13805
X5230Y12805
X5130Y11805
X5230Y10805
X5130Y9805
X5230Y8805
X5130Y7805
X5230Y6805
X5130Y5805
X5230Y4805
X5130Y3805
X5230Y2805
X5130Y1805
X17730Y1805
X17830Y2805
X17730Y3805
X17830Y4805
X17730Y5805
X17830Y6805
X17730Y7805
X17830Y8805
X17730Y9805
X17830Y10805
X17730Y11805
X17830Y12805
X17730Y13805
X17830Y14805
X17730Y15805
X17830Y16805
X17730Y17805
X17830Y18805
X17730Y19805
X17830Y20805
X17730Y21805
X17830Y22805
X17730Y23805
X17830Y24805
X17730Y25805
X21530Y25805
X21630Y24805
X21530Y23805
X21630Y22805
X21530Y21805
X21630Y20805
X21530Y19805
X21630Y18805
X21530Y17805
X21630Y16805
X21530Y15805
X21630Y14805
X21530Y13805
X21630Y12805
X21530Y11805
X21630Y10805
X21530Y9805
X21630Y8805
X21530Y7805
X21630Y6805
X21530Y5805
X21630Y4805
X21530Y3805
X21630Y2805
X21530Y1805
M30
