G75*
%MOIN*%
%OFA0B0*%
%FSLAX24Y24*%
%IPPOS*%
%LPD*%
%AMOC8*
5,1,8,0,0,1.08239X$1,22.5*
%
%ADD10C,0.0000*%
D10*
X000280Y001405D02*
X000280Y003205D01*
X000280Y003305D02*
X000280Y028305D01*
X000290Y028381D01*
X000303Y028456D01*
X000321Y028530D01*
X000343Y028603D01*
X000368Y028675D01*
X000397Y028746D01*
X000430Y028815D01*
X000466Y028882D01*
X000506Y028947D01*
X000549Y029010D01*
X000595Y029071D01*
X000645Y029129D01*
X000697Y029184D01*
X000753Y029237D01*
X000811Y029287D01*
X000871Y029333D01*
X000934Y029376D01*
X000999Y029416D01*
X001066Y029453D01*
X001135Y029486D01*
X001205Y029515D01*
X001277Y029541D01*
X001350Y029563D01*
X001425Y029581D01*
X001500Y029595D01*
X001575Y029605D01*
X001651Y029611D01*
X001728Y029613D01*
X001804Y029611D01*
X001880Y029605D01*
X009480Y029605D01*
X009547Y029595D01*
X009614Y029581D01*
X009680Y029564D01*
X009745Y029544D01*
X009809Y029519D01*
X009871Y029492D01*
X009932Y029461D01*
X009991Y029427D01*
X010048Y029389D01*
X010103Y029349D01*
X010156Y029305D01*
X010206Y029259D01*
X010254Y029211D01*
X010299Y029159D01*
X010341Y029106D01*
X010380Y029050D01*
X010416Y028992D01*
X010449Y028932D01*
X010478Y028871D01*
X010505Y028808D01*
X010527Y028744D01*
X010547Y028678D01*
X010562Y028612D01*
X010575Y028545D01*
X010583Y028477D01*
X010588Y028409D01*
X010589Y028341D01*
X010586Y028273D01*
X010580Y028205D01*
X010580Y001305D01*
X010575Y001237D01*
X010567Y001170D01*
X010555Y001103D01*
X010540Y001037D01*
X010521Y000972D01*
X010499Y000908D01*
X010473Y000846D01*
X010443Y000785D01*
X010411Y000725D01*
X010375Y000668D01*
X010337Y000612D01*
X010295Y000559D01*
X010250Y000508D01*
X010203Y000459D01*
X010153Y000413D01*
X010101Y000370D01*
X010047Y000330D01*
X009990Y000292D01*
X009932Y000258D01*
X009871Y000227D01*
X009809Y000200D01*
X009746Y000175D01*
X009682Y000154D01*
X009616Y000137D01*
X009550Y000123D01*
X009483Y000113D01*
X009415Y000107D01*
X009348Y000104D01*
X009280Y000105D01*
X001480Y000105D01*
X001410Y000110D01*
X001340Y000118D01*
X001271Y000131D01*
X001203Y000147D01*
X001136Y000168D01*
X001070Y000192D01*
X001005Y000219D01*
X000943Y000250D01*
X000882Y000285D01*
X000823Y000323D01*
X000766Y000364D01*
X000712Y000409D01*
X000660Y000456D01*
X000611Y000506D01*
X000565Y000559D01*
X000522Y000615D01*
X000482Y000672D01*
X000445Y000732D01*
X000412Y000794D01*
X000382Y000858D01*
X000356Y000923D01*
X000334Y000989D01*
X000315Y001057D01*
X000300Y001126D01*
X000289Y001195D01*
X000282Y001265D01*
X000279Y001335D01*
X000280Y001405D01*
X011830Y001405D02*
X011830Y003205D01*
X011830Y003305D02*
X011830Y028305D01*
X011839Y028378D01*
X011852Y028451D01*
X011869Y028523D01*
X011890Y028594D01*
X011914Y028664D01*
X011941Y028732D01*
X011972Y028799D01*
X012006Y028865D01*
X012044Y028928D01*
X012085Y028990D01*
X012129Y029049D01*
X012175Y029107D01*
X012225Y029161D01*
X012277Y029213D01*
X012332Y029263D01*
X012390Y029310D01*
X012449Y029353D01*
X012511Y029394D01*
X012575Y029431D01*
X012640Y029465D01*
X012707Y029496D01*
X012776Y029523D01*
X012846Y029547D01*
X012917Y029567D01*
X012989Y029584D01*
X013062Y029597D01*
X013135Y029606D01*
X013209Y029611D01*
X013283Y029613D01*
X013356Y029611D01*
X013430Y029605D01*
X022180Y029605D01*
X022247Y029595D01*
X022314Y029581D01*
X022380Y029564D01*
X022445Y029544D01*
X022509Y029519D01*
X022571Y029492D01*
X022632Y029461D01*
X022691Y029427D01*
X022748Y029389D01*
X022803Y029349D01*
X022856Y029305D01*
X022906Y029259D01*
X022954Y029211D01*
X022999Y029159D01*
X023041Y029106D01*
X023080Y029050D01*
X023116Y028992D01*
X023149Y028932D01*
X023178Y028871D01*
X023205Y028808D01*
X023227Y028744D01*
X023247Y028678D01*
X023262Y028612D01*
X023275Y028545D01*
X023283Y028477D01*
X023288Y028409D01*
X023289Y028341D01*
X023286Y028273D01*
X023280Y028205D01*
X023280Y002305D01*
X023272Y002210D01*
X023261Y002116D01*
X023245Y002023D01*
X023226Y001930D01*
X023203Y001838D01*
X023176Y001747D01*
X023146Y001657D01*
X023112Y001568D01*
X023074Y001481D01*
X023033Y001396D01*
X022989Y001312D01*
X022941Y001230D01*
X022890Y001150D01*
X022836Y001072D01*
X022779Y000996D01*
X022719Y000923D01*
X022656Y000852D01*
X022590Y000784D01*
X022521Y000719D01*
X022450Y000656D01*
X022376Y000596D01*
X022300Y000540D01*
X022222Y000486D01*
X022142Y000436D01*
X022059Y000388D01*
X021975Y000345D01*
X021889Y000304D01*
X021802Y000267D01*
X021713Y000234D01*
X021623Y000204D01*
X021532Y000178D01*
X021440Y000156D01*
X021347Y000137D01*
X021253Y000122D01*
X021159Y000111D01*
X021064Y000104D01*
X020970Y000100D01*
X020875Y000101D01*
X020780Y000105D01*
X013030Y000105D01*
X012960Y000110D01*
X012890Y000118D01*
X012821Y000131D01*
X012753Y000147D01*
X012686Y000168D01*
X012620Y000192D01*
X012555Y000219D01*
X012493Y000250D01*
X012432Y000285D01*
X012373Y000323D01*
X012316Y000364D01*
X012262Y000409D01*
X012210Y000456D01*
X012161Y000506D01*
X012115Y000559D01*
X012072Y000615D01*
X012032Y000672D01*
X011995Y000732D01*
X011962Y000794D01*
X011932Y000858D01*
X011906Y000923D01*
X011884Y000989D01*
X011865Y001057D01*
X011850Y001126D01*
X011839Y001195D01*
X011832Y001265D01*
X011829Y001335D01*
X011830Y001405D01*
M02*
